<svg width="120" height="25" viewBox="0 0 120 25" fill="none" xmlns="http://www.w3.org/2000/svg">
<path d="M57.7834 10.4776L55.4626 9.72295C53.6745 9.15586 53.0788 8.8002 53.0788 7.81565C53.0788 6.83109 54.0347 6.13713 55.5136 6.13713C57.28 6.13713 57.676 6.80398 57.9549 7.54674C58.2782 8.41853 58.7762 8.79044 59.6214 8.79044C60.3647 8.79044 60.9039 8.2754 60.9039 7.56517C60.9039 6.7541 60.4504 5.96256 59.6605 5.39329C58.7198 4.7156 57.3342 4.35669 55.6525 4.35669C53.8785 4.35669 52.4973 4.75789 51.5446 5.54726C50.6875 6.25966 50.2339 7.25614 50.2339 8.43045C50.2339 10.3432 51.3352 11.5294 53.8047 12.2765L56.4879 13.0865C57.9418 13.5224 58.5625 14.1676 58.5625 15.2454C58.5625 16.6485 57.2279 17.2871 55.9877 17.2871C54.2875 17.2871 53.5172 16.8523 53.0419 15.6238C52.6752 14.7075 52.1446 14.2988 51.32 14.2988C50.4954 14.2988 49.9258 14.8713 49.9258 15.6921C49.9258 16.977 51.1551 19.1521 55.7631 19.1521C59.9643 19.1521 61.4605 16.8024 61.4605 14.6034C61.4605 12.5888 60.3256 11.3169 57.7802 10.4787L57.7834 10.4776Z" fill="#175C62"/>
<path d="M104.841 14.1047C104.584 14.1047 104.445 14.2055 104.165 14.598C103.114 16.1074 102.055 16.9813 99.7548 16.9813C96.9348 16.9813 95.112 14.9298 95.112 11.755C95.112 8.58009 96.9066 6.3052 99.4748 6.3052C101.284 6.3052 101.838 7.10434 102.168 7.96745C102.399 8.56816 102.771 9.18188 103.778 9.18188C104.672 9.18188 105.228 8.61587 105.228 7.70505C105.228 7.14988 104.865 6.29436 103.849 5.55702C103.092 5.00945 101.721 4.35669 99.4738 4.35669C97.2267 4.35669 95.3442 5.11788 93.963 6.55785C92.6708 7.90565 91.959 9.75115 91.959 11.7539C91.959 16.0402 95.1196 19.1521 99.4738 19.1521C101.866 19.1521 103.342 18.1101 104.158 17.2362C105.059 16.27 105.479 15.1608 105.479 14.7151C105.479 14.3725 105.198 14.1036 104.84 14.1036L104.841 14.1047Z" fill="#175C62"/>
<path d="M120 10.9156C120 9.11885 119.365 7.46636 118.213 6.26386C117.034 5.03316 115.377 4.35547 113.548 4.35547C111.386 4.35547 109.523 5.11557 108.159 6.55446C106.879 7.90551 106.174 9.74234 106.174 11.7255C106.174 13.7088 106.888 15.5835 108.184 16.9368C109.574 18.3854 111.497 19.152 113.744 19.152C116.152 19.152 117.633 18.11 118.452 17.236C119.356 16.271 119.778 15.1606 119.778 14.7139C119.778 14.3713 119.497 14.1034 119.138 14.1034C118.88 14.1034 118.742 14.2043 118.462 14.5968C117.41 16.1062 116.346 16.9801 114.024 16.9801C111.213 16.9801 109.421 15.0544 109.328 11.9457H119.249C119.943 11.9457 120 11.4371 120 10.9156ZM109.518 9.94185C110.027 7.64527 111.489 6.33217 113.548 6.33217C115.432 6.33217 116.696 7.67889 116.949 9.94185H109.518Z" fill="#175C62"/>
<path d="M75.3651 6.56869C73.9774 5.12221 72.0634 4.35669 69.8294 4.35669C68.1693 4.35669 66.6351 4.94005 65.574 5.96473V5.04523C65.574 4.83053 65.3993 4.65488 65.1834 4.65488H61.9522C61.7363 4.65488 61.5605 4.83053 61.5605 5.04523V6.17834C61.5605 6.39411 61.7363 6.56977 61.9522 6.56977H62.7573C62.8528 6.56977 62.9309 6.64784 62.9309 6.74326V22.0603C62.9309 22.4853 62.9114 22.5298 62.6412 22.7271L61.886 23.2573C61.6962 23.3918 61.5605 23.5067 61.5605 23.7637C61.5605 23.9199 61.6332 24.1801 62.1172 24.1801H66.9802C67.3849 24.1801 67.591 24.0402 67.591 23.7637C67.591 23.5122 67.4381 23.3983 67.2004 23.2519L66.2814 22.7239C65.9505 22.5189 65.9418 22.4745 65.9418 22.0603V18.0125C66.9216 18.7488 68.292 19.1521 69.8294 19.1521C72.0634 19.1521 73.9774 18.3877 75.3651 16.9412C76.6585 15.5913 77.3713 13.749 77.3713 11.756C77.3713 9.76307 76.6585 7.91866 75.3651 6.56869ZM69.5506 17.2036C67.9176 17.2036 66.57 16.4836 65.9418 15.2757V8.23528C66.57 7.02627 67.9176 6.3052 69.5506 6.3052C72.1698 6.3052 74.2215 8.69936 74.2215 11.756C74.2215 14.8127 72.1698 17.2036 69.5506 17.2036Z" fill="#175C62"/>
<path d="M49.4721 17.8922L48.6616 17.3349C48.3285 17.1029 47.837 16.5705 47.594 16.2658L44.1002 11.9632L44.0839 11.9437C43.8159 11.6271 43.561 11.3246 43.2669 11.1196L43.3418 11.0448L46.8898 7.16297C47.4095 6.61539 47.9477 6.34757 48.3394 6.15348L49.4602 5.62216C49.6652 5.52024 49.8551 5.38687 49.8551 5.10603C49.8551 4.95097 49.7835 4.69182 49.3007 4.69182H44.0188C43.5349 4.69182 43.4622 4.95206 43.4622 5.10603C43.4622 5.36084 43.5914 5.47253 43.791 5.61566L44.6037 6.14806C44.6731 6.19143 44.71 6.22938 44.7133 6.26191C44.7176 6.29986 44.6883 6.37793 44.5255 6.54166L41.1446 10.2001C40.8636 10.5048 40.6965 10.584 40.3309 10.584H39.7124L39.7255 0.390353C39.7255 0.174574 39.5508 0 39.3349 0H35.7359C35.52 0 35.3453 0.174574 35.3453 0.390353V1.52346C35.3453 1.73924 35.52 1.91381 35.7359 1.91381H36.5388C36.6343 1.91381 36.7124 1.99188 36.7124 2.0873C36.7124 2.46681 36.7004 3.91871 36.6994 4.14099V4.20063V16.6973C36.6994 17.1235 36.6809 17.1668 36.4107 17.362L35.6556 17.8933C35.4592 18.0332 35.3301 18.1438 35.3301 18.4008C35.3301 18.5558 35.4028 18.8172 35.8867 18.8172H40.5251C41.009 18.8172 41.0817 18.5569 41.0817 18.4008C41.0817 18.1438 40.9526 18.0332 40.7562 17.8933L40.0032 17.3631C39.7309 17.1658 39.7124 17.1224 39.7124 16.6973V12.5889H40.3309C40.7432 12.5889 40.9255 12.6192 41.1967 12.9402L44.5494 16.9868C44.6232 17.0812 44.6547 17.1452 44.6482 17.1864C44.6362 17.2568 44.5049 17.3523 44.404 17.4184L43.7324 17.8933C43.536 18.0343 43.408 18.146 43.408 18.4008C43.408 18.5558 43.4807 18.8172 43.9646 18.8172H49.2464C49.7303 18.8172 49.803 18.5569 49.803 18.4008C49.803 18.146 49.6739 18.0343 49.4764 17.8922H49.4721Z" fill="#175C62"/>
<path d="M33.6525 17.8933L32.8995 17.3631C32.6272 17.1658 32.6087 17.1224 32.6087 16.6973L32.6217 0.390353C32.6217 0.174574 32.447 0 32.2311 0H28.6321C28.4162 0 28.2415 0.174574 28.2415 0.390353V1.52346C28.2415 1.73924 28.4162 1.91381 28.6321 1.91381H29.4361C29.5316 1.91381 29.6108 1.99188 29.6108 2.0873C29.6108 2.4679 29.5989 3.91871 29.5978 4.14099V16.6973C29.5978 17.1224 29.5783 17.1658 29.3081 17.362L28.5529 17.8933C28.3565 18.0343 28.2285 18.146 28.2285 18.4008C28.2285 18.5558 28.3012 18.8172 28.7851 18.8172H33.4235C33.9075 18.8172 33.9802 18.5569 33.9802 18.4008C33.9802 18.1438 33.851 18.0332 33.6547 17.8933H33.6525Z" fill="#175C62"/>
<path d="M26.975 17.425C26.3186 17.425 25.9583 17.4131 25.9583 16.0848V9.84678C25.9583 6.12433 24.1789 4.3916 20.3597 4.3916C16.5404 4.3916 14.8728 5.89988 14.8728 7.39623C14.8728 8.30814 15.4836 8.89692 16.4298 8.89692C17.2837 8.89692 17.7817 8.47296 18.1484 7.43201C18.4099 6.69793 18.6909 6.2512 20.3868 6.2512C22.0827 6.2512 22.9539 7.15443 22.9539 9.09535V9.69606L20.9586 9.96172C16.3842 10.5733 14.0645 12.2962 14.0645 15.0829C14.0645 17.5508 15.8677 19.1458 18.6595 19.1458C20.8913 19.1458 22.4342 18.0691 23.1981 16.9859C23.4737 18.2914 24.2885 19.0071 25.5146 19.0071C26.7406 19.0071 27.3927 18.3435 27.4068 17.8555C27.4133 17.618 27.2137 17.425 26.975 17.425ZM22.9539 13.078C22.9539 14.9485 21.5087 16.9512 19.356 16.9512C17.9195 16.9512 17.096 16.138 17.096 14.7208C17.096 13.1561 18.3589 12.2529 21.0715 11.8755L22.9539 11.6142V13.078Z" fill="#175C62"/>
<path d="M91.3051 17.4249C90.6486 17.4249 90.2873 17.4141 90.2873 16.0847V9.84666C90.2873 6.12421 88.509 4.39148 84.6887 4.39148C80.8683 4.39148 79.2018 5.89976 79.2018 7.39611C79.2018 8.30802 79.8137 8.8968 80.7599 8.8968C81.6127 8.8968 82.1107 8.47283 82.4785 7.43189C82.7389 6.69781 83.0199 6.25108 84.7169 6.25108C86.4138 6.25108 87.284 7.15431 87.284 9.09523V9.69594L85.2876 9.96159C80.7132 10.5731 78.3945 12.2961 78.3945 15.0828C78.3945 17.5507 80.1978 19.1457 82.9895 19.1457C85.2214 19.1457 86.7643 18.069 87.5281 16.9858C87.8037 18.2913 88.6175 19.0069 89.8446 19.0069C91.0718 19.0069 91.7228 18.3433 91.7369 17.8554C91.7434 17.6179 91.5438 17.4249 91.3051 17.4249ZM87.284 13.0779C87.284 14.9483 85.8377 16.9511 83.6861 16.9511C82.2496 16.9511 81.426 16.1378 81.426 14.7206C81.426 13.156 82.689 12.2527 85.4004 11.8754L87.284 11.6141V13.0779Z" fill="#175C62"/>
<path d="M15.7034 0.390353V3.66281C15.7034 3.95666 15.5384 4.154 15.2932 4.154C15.0144 4.154 14.9048 4.00003 14.7887 3.79835L14.4079 3.1727C13.9587 2.44404 13.5615 1.96694 12.1749 1.96694H9.41029V16.6247C9.41029 17.04 9.42874 17.0823 9.69348 17.2753L10.5951 17.902C10.7883 18.0408 10.9152 18.1492 10.9152 18.4019C10.9152 18.5884 10.8154 18.8107 10.3412 18.8107H5.36104C4.88689 18.8107 4.78815 18.5884 4.78815 18.4019C4.78815 18.1492 4.91401 18.0408 5.10714 17.9031L6.01096 17.2731C6.27353 17.0823 6.29306 17.04 6.29306 16.6247V1.96694H3.52845C2.14181 1.96694 1.74361 2.44404 1.29442 3.1727L0.912494 3.8016C0.798568 4.00003 0.687897 4.154 0.409049 4.154C0.163837 4.154 0 3.95666 0 3.66281V0.390353C0 0.174574 0.174687 0 0.390604 0H15.3128C15.5287 0 15.7034 0.174574 15.7034 0.390353Z" fill="#175C62"/>
</svg>
